<svg width="52" height="102" viewBox="0 0 52 102" fill="none" xmlns="http://www.w3.org/2000/svg">
<path d="M51.651 94.6567C52.0711 93.5439 53.4513 87.1086 45.1 84.8089C43.5698 92.7465 50.3808 94.499 51.651 94.6567ZM40.7894 101.676C41.9896 102.066 48.9306 103.345 51.421 95.6118C42.8497 94.193 40.9594 100.499 40.7894 101.676ZM41.5895 92.5888C42.2896 91.5874 45.19 85.6342 37.6589 81.6098C34.1984 89.0281 40.3793 92.1808 41.5895 92.5888ZM29.2577 97.1139C30.3379 97.763 36.7588 100.452 41.0994 93.4697C33.0983 90.2614 29.7178 96.0012 29.2577 97.1139ZM32.2581 88.1564C33.1583 87.3219 37.4589 82.1291 31.078 76.6396C25.9272 83.1306 31.198 87.4888 32.2581 88.1564ZM19.1762 90.011C20.0763 90.8455 25.6772 94.8328 31.598 88.9168C24.597 84.1413 19.8963 89.0095 19.1762 90.011ZM24.0769 81.6377C25.1771 81.0071 30.5979 76.8158 25.6772 70.1672C19.0962 75.4342 23.1768 80.766 24.0769 81.6377ZM10.875 80.7382C11.5551 81.7582 16.0758 86.7841 23.2468 82.2218C17.546 76.1203 11.8051 79.9036 10.875 80.7382ZM17.3859 73.2551C18.6061 72.8841 24.9071 69.9168 21.7366 62.4059C14.0355 66.1799 16.7359 72.235 17.3859 73.2551ZM4.72408 69.6387C5.12414 70.7699 8.32462 76.6118 16.4258 73.6723C12.3552 66.5323 5.82425 69.0359 4.72408 69.6387ZM12.4252 63.3053C13.7054 63.1941 20.5664 61.6733 19.3562 53.6802C10.935 55.7017 12.0552 62.1648 12.4252 63.3053ZM1.02354 57.074C1.14356 58.2609 2.7838 64.6221 11.4051 63.5001C9.20474 55.6831 2.25372 56.7309 1.02354 57.074ZM9.5648 52.2707C10.835 52.4376 17.896 52.4562 18.7361 44.4259C10.0349 44.5558 9.48479 51.0838 9.5648 52.2707ZM0.0433945 43.7398C-0.136632 44.9174 -0.156635 51.464 8.50464 52.2429C8.36462 44.1756 1.33358 43.6656 0.0433945 43.7398ZM9.50479 42.5899C10.705 43.0258 17.556 44.5743 20.4064 36.9521C11.9051 35.1902 9.72482 41.403 9.50479 42.5899ZM2.40374 32.2044C1.93367 33.3171 0.263426 39.669 8.48464 42.3117C10.3849 34.4299 3.66393 32.4177 2.40374 32.2044ZM12.2052 33.3357C13.2553 34.0126 19.5563 36.9799 24.207 30.1551C16.3658 26.6315 12.7053 32.2415 12.2052 33.3357ZM7.85454 21.7447C7.12444 22.7183 3.92397 28.5602 11.2851 32.872C15.0856 25.6022 9.03472 22.2083 7.85454 21.7447ZM17.436 24.8974C18.2961 25.7784 23.7369 29.9697 29.8978 24.2854C23.0968 19.2318 18.1961 23.9331 17.436 24.8974ZM15.9857 12.6666C15.0356 13.4641 10.5149 18.5085 16.6458 24.2205C22.0866 17.915 17.0159 13.3714 15.9857 12.6666ZM24.8571 17.5256C25.4871 18.5641 29.7578 23.7662 37.1589 19.5007C31.7381 13.1766 25.8272 16.7467 24.8571 17.5256ZM26.3873 5.31331C25.2671 5.8975 19.6563 9.85698 24.257 16.7188C31.078 11.7115 27.2274 6.21277 26.3873 5.31331ZM34.2184 11.5724C34.5785 12.713 37.4789 18.6847 45.7201 16.0697C41.9896 8.77206 35.3586 11.0161 34.2184 11.5724ZM38.6691 0C37.4389 0.33382 30.988 3.02293 33.8184 10.6637C41.6895 7.20496 39.2692 1.0571 38.6691 0Z" fill="65C3B5"/>
</svg>
