<svg width="52" height="110" viewBox="0 0 52 110" fill="none" xmlns="http://www.w3.org/2000/svg">
<path d="M0.349998 102.08C-0.0700018 100.88 -1.45 93.94 6.9 91.46C8.42 100.02 1.62 101.91 0.349998 102.08ZM11.22 109.65C10.02 110.07 3.08 111.45 0.589998 103.11C9.16 101.58 11.05 108.38 11.22 109.65ZM10.42 99.85C9.72 98.77 6.82 92.35 14.35 88.01C17.81 96.01 11.62 99.41 10.42 99.85ZM22.74 104.73C21.66 105.43 15.24 108.33 10.9 100.8C18.9 97.34 22.28 103.53 22.74 104.73ZM19.72 95.07C18.82 94.17 14.52 88.57 20.9 82.65C26.06 89.65 20.8 94.35 19.72 95.07ZM32.82 97.07C31.92 97.97 26.32 102.27 20.4 95.89C27.4 90.74 32.1 95.99 32.82 97.07ZM27.9 88.04C26.8 87.36 21.38 82.84 26.3 75.67C32.88 81.35 28.8 87.1 27.9 88.04ZM41.1 87.07C40.42 88.17 35.9 93.59 28.73 88.67C34.43 82.09 40.17 86.17 41.1 87.07ZM34.6 79C33.38 78.6 27.08 75.4 30.25 67.3C37.95 71.37 35.25 77.9 34.6 79ZM47.27 75.1C46.87 76.32 43.67 82.62 35.57 79.45C39.64 71.75 46.17 74.45 47.27 75.1ZM39.57 68.27C38.29 68.15 31.43 66.51 32.64 57.89C41.06 60.07 39.94 67.04 39.57 68.27ZM51 61.55C50.88 62.83 49.24 69.69 40.62 68.48C42.82 60.05 49.77 61.18 51 61.55ZM42.45 56.37C41.18 56.55 34.12 56.57 33.28 47.91C41.98 48.05 42.53 55.09 42.45 56.37ZM51.97 47.17C52.15 48.44 52.17 55.5 43.51 56.34C43.65 47.64 50.68 47.09 51.97 47.17ZM42.52 45.93C41.32 46.4 34.47 48.07 31.62 39.85C40.12 37.95 42.3 44.65 42.52 45.93ZM49.62 34.73C50.09 35.93 51.76 42.78 43.54 45.63C41.64 37.13 48.36 34.96 49.62 34.73ZM39.8 35.95C38.75 36.68 32.45 39.88 27.8 32.52C35.64 28.72 39.3 34.77 39.8 35.95ZM44.16 23.45C44.89 24.5 48.09 30.8 40.73 35.45C36.93 27.61 42.98 23.95 44.16 23.45ZM34.56 26.85C33.7 27.8 28.26 32.32 22.1 26.19C28.9 20.74 33.8 25.81 34.56 26.85ZM36.01 13.68C36.96 14.54 41.48 19.98 35.35 26.14C29.91 19.34 34.98 14.44 36.01 13.68ZM27.13 18.92C26.5 20.04 22.23 25.65 14.83 21.05C20.23 14.23 26.16 18.08 27.13 18.92ZM25.62 5.73C26.74 6.36 32.35 10.63 27.75 18.03C20.93 12.63 24.78 6.7 25.62 5.73ZM17.78 12.48C17.42 13.71 14.52 20.15 6.28 17.33C10.01 9.46 16.64 11.88 17.78 12.48ZM13.33 0C14.56 0.36 21 3.26 18.18 11.5C10.3 7.77 12.73 1.14 13.33 0Z" fill="65C3B5"/>
</svg>
