<svg width="512" height="512" viewBox="0 0 512 512" fill="none" xmlns="http://www.w3.org/2000/svg">
<g clip-path="url(#clip0_12_22)">
<path d="M223 7.75V305.75H345V7.75H223ZM315 237.75H253V207.75H315V237.75ZM315 178.75H253V148.75H315V178.75ZM315 119.75H253V89.75H315V119.75Z" fill="#EAF1E9"/>
<path d="M345 69.75H398.5V305.75H345V69.75Z" fill="#EAF1E9"/>
<path d="M113.5 96.75V305.75H223V96.75H113.5ZM193 217.75H143.5V187.75H193V217.75ZM193 156.75H143.5V126.75H193V156.75Z" fill="#EAF1E9"/>
<path d="M223 96.75H134V61.75L223 45.75V96.75Z" fill="#EAF1E9"/>
<path d="M256 263.25C118.757 263.25 7.5 374.507 7.5 511.75H504.5C504.5 374.507 393.243 263.25 256 263.25Z" fill="#01A100"/>
<path d="M169 339.75L183 312.75L233 316.75L238 352.75L214 363.75L231 399.75L207 403.75L169 339.75ZM491.18 431.3L454 444.75L445 480.75L391 482.75L359 431.75L314 426.75L271 371.75L299 327.75L413 319.11C448.6 348.16 476 386.89 491.2 431.29L491.18 431.3ZM172 435.75L158 471.75L119 459.75L94 485.75V485.87L8.88 485.42C15.03 427 41.42 374.62 80.91 335.42L121.01 353.76V381.76L143.01 389.76L172 435.75Z" fill="#EAF1E9"/>
<path d="M406 304.25V62.25H352.5V0.25H215.5V39.478L126.5 55.478V89.25H106V304.25C40.742 351.635 0 427.124 0 511.75H15C15.001 505.438 15.2479 499.129 15.74 492.836L97.177 493.266L121.207 468.276L162.462 480.97L180.359 434.947L147.975 383.579L128.499 376.497V348.934L94.236 333.26C176.75 258.41 300.114 249.615 392.362 313.153L294.688 320.556L261.828 372.196L310.036 433.856L354.573 438.806L386.95 490.406L450.91 488.036L460.308 450.443L486.396 440.998C493.283 463.38 497 487.14 497 511.75H512C512 427.15 471.277 351.65 406 304.25ZM113.5 358.566V387.003L138.024 395.921L163.64 436.553L153.537 462.53L116.792 451.224L90.822 478.234L17.395 477.846C24.669 426.416 48.229 380.158 82.695 344.472L113.5 358.566ZM215.5 258.934C181.81 264.258 149.792 276.208 121 294.146V104.25H215.5V258.934ZM215.5 89.25H141.5V68.022L215.5 54.719V89.25ZM337.5 268.943C304.488 257.897 268.002 253.313 230.5 256.996V15.25H337.5V268.943ZM391 92.25H369V107.25H391V120.45H369V135.45H391V148.65H369V163.65H391V176.85H369V191.85H391V205.05H369V220.05H391V233.25H369V248.25H391V294.146C378.75 286.512 365.87 279.939 352.5 274.5V77.25H391V92.25ZM447.692 439.057L439.09 473.464L395.05 475.094L363.427 424.694L317.964 419.644L280.172 371.304L303.312 334.944L410.367 326.829C441.97 353.254 466.717 387.609 481.527 426.807L447.692 439.057ZM322.5 82.25H245.5V127.25H322.5V82.25ZM307.5 112.25H260.5V97.25H307.5V112.25ZM322.5 141.25H245.5V186.25H322.5V141.25ZM307.5 171.25H260.5V156.25H307.5V171.25ZM322.5 200.25H245.5V245.25H322.5V200.25ZM307.5 230.25H260.5V215.25H307.5V230.25ZM200.5 119.25H136V164.25H200.5V119.25ZM185.5 149.25H151V134.25H185.5V149.25ZM200.5 180.25H136V225.25H200.5V180.25ZM185.5 210.25H151V195.25H185.5V210.25ZM260.5 62.75H245.5V29.75H260.5V62.75ZM291.5 62.75H276.5V29.75H291.5V62.75ZM322.5 62.75H307.5V29.75H322.5V62.75ZM239.6 309.754L178.633 304.877L160.433 339.997L203.18 411.992L242.027 405.517L224.031 367.417L246.206 357.253L239.6 309.754ZM203.978 360.094L219.982 393.994L210.829 395.519L177.576 339.514L187.376 320.634L226.409 323.757L229.813 348.257L203.978 360.094Z" fill="#028704"/>
</g>
<defs>
<clipPath id="clip0_12_22">
<rect width="512" height="512" fill="white"/>
</clipPath>
</defs>
</svg>
