<svg width="512" height="512" viewBox="0 0 512 512" fill="none" xmlns="http://www.w3.org/2000/svg">
<g clip-path="url(#clip0_12_2)">
<path d="M257.748 366.142C318.44 366.142 367.641 316.942 367.641 256.25C367.641 195.558 318.44 146.357 257.748 146.357C197.056 146.357 147.856 195.558 147.856 256.25C147.856 316.942 197.056 366.142 257.748 366.142Z" fill="#EAF1E9"/>
<path d="M127.376 102.9C127.376 121.383 112.392 136.367 93.9083 136.367C75.4243 136.367 60.441 121.383 60.441 102.9C60.441 84.4156 75.4243 69.4322 93.9083 69.4322C112.392 69.4322 127.376 84.4156 127.376 102.9ZM255.75 7.49268C237.266 7.49268 222.283 22.476 222.283 40.96C222.283 59.4439 237.266 74.4273 255.75 74.4273C274.234 74.4273 289.218 59.4439 289.218 40.96C289.218 22.476 274.234 7.49268 255.75 7.49268ZM255.75 437.573C237.266 437.573 222.283 452.556 222.283 471.04C222.283 489.524 237.266 504.507 255.75 504.507C274.234 504.507 289.218 489.524 289.218 471.04C289.218 452.556 274.234 437.573 255.75 437.573ZM421.588 69.4322C403.104 69.4322 388.121 84.4156 388.121 102.9C388.121 121.383 403.104 136.367 421.588 136.367C440.072 136.367 455.056 121.383 455.056 102.9C455.056 84.4156 440.072 69.4322 421.588 69.4322ZM93.9083 375.134C75.4243 375.134 60.441 390.117 60.441 408.601C60.441 427.085 75.4243 442.068 93.9083 442.068C112.392 442.068 127.376 427.085 127.376 408.601C127.376 390.117 112.392 375.134 93.9083 375.134ZM421.588 375.134C403.104 375.134 388.121 390.117 388.121 408.601C388.121 427.085 403.104 442.068 421.588 442.068C440.072 442.068 455.056 427.085 455.056 408.601C455.056 390.117 440.072 375.134 421.588 375.134ZM504.258 256C504.258 237.516 489.274 222.533 470.79 222.533C452.306 222.533 437.323 237.516 437.323 256C437.323 274.484 452.306 289.467 470.79 289.467C489.274 289.467 504.258 274.484 504.258 256ZM74.1776 256C74.1776 237.516 59.1942 222.533 40.7102 222.533C22.2263 222.533 7.24292 237.516 7.24292 256C7.24292 274.484 22.2263 289.467 40.7102 289.467C59.1942 289.467 74.1776 274.484 74.1776 256Z" fill="#01A100"/>
<path d="M258.498 138.864C193.761 138.864 141.112 191.513 141.112 256.25C141.112 320.987 193.771 373.635 258.498 373.635C323.224 373.635 375.883 320.987 375.883 256.25C375.883 191.513 323.224 138.864 258.498 138.864ZM217.026 162.633C214.217 166.33 211.559 170.431 209.08 174.926C206.932 178.822 204.962 182.952 203.166 187.266C199.152 184.678 195.323 181.814 191.708 178.693C199.316 172.13 207.846 166.719 217.026 162.633ZM181.077 189.297C186.392 193.975 192.056 198.129 198.021 201.727C193.693 216.169 191.142 232.137 190.548 248.756H156.373C158.019 226.115 167.053 205.491 181.077 189.297ZM156.373 263.742H190.548C191.187 281.675 194.114 298.845 199.085 314.163C193.453 317.478 188.107 321.254 183.1 325.452C167.928 308.936 158.097 287.442 156.374 263.732L156.373 263.742ZM194.104 335.806C197.42 333.118 200.9 330.64 204.524 328.385C205.914 331.51 207.434 334.576 209.08 337.574C211.559 342.07 214.217 346.17 217.026 349.867C208.802 346.206 201.095 341.478 194.104 335.806ZM251.005 357.575C237.896 353.824 226.165 340.435 217.881 321.39C228.39 316.852 239.588 314.117 251.005 313.298V357.575ZM251.005 298.283C237.698 299.122 224.776 302.187 212.708 307.299C208.712 294.232 206.155 279.412 205.533 263.739H251.006V298.283H251.005ZM251.005 248.755H205.532C206.098 234.493 208.26 220.938 211.662 208.766C224.01 214.141 237.277 217.351 251.004 218.21V248.757L251.005 248.755ZM251.005 203.197C238.937 202.329 227.284 199.37 216.469 194.499C224.8 173.659 237.131 158.891 251.005 154.922V203.197ZM360.622 248.757H326.447C325.854 232.139 323.303 216.169 318.975 201.728C324.937 198.132 330.603 193.976 335.918 189.298C349.941 205.482 358.975 226.116 360.622 248.757ZM325.286 178.693C321.671 181.813 317.843 184.678 313.829 187.265C312.03 182.951 310.062 178.821 307.914 174.925C305.435 170.43 302.777 166.33 299.968 162.632C309.148 166.718 317.679 172.129 325.287 178.693H325.286ZM265.989 154.924C279.864 158.893 292.194 173.661 300.526 194.501C289.709 199.373 278.047 202.333 265.989 203.199V154.924ZM265.989 218.212C279.716 217.353 292.983 214.142 305.331 208.768C308.733 220.94 310.895 234.495 311.461 248.757H265.99L265.989 218.212ZM265.989 263.743H311.462C310.842 279.416 308.293 294.236 304.287 307.303C292.219 302.19 279.298 299.126 265.99 298.287V263.742L265.989 263.743ZM265.989 357.577V313.3C277.508 314.133 288.681 316.887 299.113 321.392C290.829 340.438 279.098 353.826 265.989 357.577ZM299.968 349.867C302.777 346.171 305.435 342.07 307.914 337.574C309.533 334.637 311.047 331.564 312.47 328.385C316.094 330.639 319.574 333.118 322.89 335.806C315.899 341.479 308.193 346.207 299.968 349.867ZM333.895 325.461C328.893 321.257 323.546 317.48 317.911 314.172C322.88 298.855 325.807 281.684 326.447 263.751H360.622C358.9 287.46 349.068 308.954 333.896 325.471L333.895 325.461ZM94.1581 143.86C102.5 143.867 110.643 141.312 117.485 136.541L149.978 167.524L160.319 156.68L128.036 125.895C132.502 119.334 135.129 111.419 135.129 102.901C135.129 80.3156 116.754 61.9405 94.169 61.9405C71.5841 61.9405 53.209 80.3156 53.209 102.901C53.209 125.485 71.5831 143.861 94.169 143.861L94.1581 143.86ZM94.1581 76.9249C108.48 76.9249 120.133 88.5765 120.133 102.9C120.133 117.223 108.48 128.874 94.1581 128.874C79.836 128.874 68.1834 117.223 68.1834 102.9C68.1834 88.5765 79.836 76.9249 94.1581 76.9249ZM248.507 81.2207V116.416H263.493V81.2207C282.51 77.6891 296.96 60.9854 296.96 40.96C296.96 18.3751 278.585 0 256 0C233.415 0 215.04 18.3751 215.04 40.96C215.04 60.9854 229.49 77.6891 248.507 81.2207ZM256 14.9854C270.322 14.9854 281.975 26.637 281.975 40.96C281.975 55.283 270.322 66.9346 256 66.9346C241.678 66.9346 230.025 55.283 230.025 40.96C230.025 26.637 241.678 14.9854 256 14.9854ZM263.493 430.779V396.083H248.507V430.779C229.49 434.311 215.04 451.015 215.04 471.04C215.04 493.625 233.415 512 256 512C278.585 512 296.96 493.625 296.96 471.04C296.96 451.015 282.51 434.311 263.493 430.779ZM256 497.015C241.678 497.015 230.025 485.363 230.025 471.04C230.025 456.717 241.678 445.065 256 445.065C270.322 445.065 281.975 456.717 281.975 471.04C281.975 485.363 270.322 497.015 256 497.015ZM421.838 367.641C410.869 367.641 400.902 371.983 393.543 379.028L362.643 349.561L352.301 360.405L384.714 391.318C382.182 396.727 380.873 402.628 380.878 408.601C380.878 431.186 399.253 449.561 421.838 449.561C444.423 449.561 462.798 431.186 462.798 408.601C462.798 386.016 444.423 367.641 421.838 367.641ZM421.838 434.576C407.516 434.576 395.863 422.924 395.863 408.601C395.863 394.278 407.516 382.626 421.838 382.626C436.16 382.626 447.813 394.278 447.813 408.601C447.813 422.924 436.16 434.576 421.838 434.576ZM471.04 215.04C451.544 215.04 435.197 228.737 431.086 247.009H398.351V261.994H430.523C433.433 281.748 450.491 296.96 471.04 296.96C493.625 296.96 512 278.585 512 256C512 233.415 493.625 215.04 471.04 215.04ZM471.04 281.975C456.718 281.975 445.065 270.323 445.065 256C445.065 241.677 456.718 230.025 471.04 230.025C485.362 230.025 497.015 241.677 497.015 256C497.015 270.323 485.362 281.975 471.04 281.975ZM81.4774 261.994H118.644V247.009H80.914C76.803 228.737 60.456 215.04 40.96 215.04C18.3751 215.04 0 233.415 0 256C0 278.585 18.3751 296.96 40.96 296.96C61.5099 296.96 78.5673 281.748 81.4774 261.994ZM40.96 281.975C26.638 281.975 14.9854 270.323 14.9854 256C14.9854 241.677 26.638 230.025 40.96 230.025C55.282 230.025 66.9346 241.677 66.9346 256C66.9346 270.323 55.282 281.975 40.96 281.975ZM151.956 347.093L120.396 377.18C113.283 371.23 104.132 367.641 94.1571 367.641C71.5721 367.641 53.1971 386.016 53.1971 408.601C53.1971 431.186 71.5721 449.561 94.1571 449.561C116.742 449.561 135.117 431.186 135.117 408.601C135.123 401.655 133.352 394.823 129.972 388.755L162.296 357.939L151.956 347.093ZM94.1581 434.576C79.836 434.576 68.1834 422.924 68.1834 408.601C68.1834 394.278 79.836 382.626 94.1581 382.626C108.48 382.626 120.133 394.278 120.133 408.601C120.133 422.924 108.48 434.576 94.1581 434.576ZM364.66 165.007L396.271 134.866C403.284 140.487 412.172 143.861 421.838 143.861C444.423 143.861 462.798 125.485 462.798 102.901C462.798 80.3156 444.423 61.9405 421.838 61.9405C399.253 61.9405 380.878 80.3156 380.878 102.901C380.872 110.146 382.801 117.261 386.465 123.511L354.319 154.161L364.66 165.007ZM421.838 76.9249C436.16 76.9249 447.813 88.5765 447.813 102.9C447.813 117.223 436.16 128.874 421.838 128.874C407.516 128.874 395.863 117.223 395.863 102.9C395.863 88.5765 407.516 76.9249 421.838 76.9249Z" fill="#028704"/>
</g>
<defs>
<clipPath id="clip0_12_2">
<rect width="512" height="512" fill="white"/>
</clipPath>
</defs>
</svg>
