<svg width="512" height="512" viewBox="0 0 512 512" fill="none" xmlns="http://www.w3.org/2000/svg">
<g clip-path="url(#clip0_12_6)">
<path d="M504.485 462.654V511.749H7.51465V462.654C7.51465 422.898 33.826 389.293 69.9867 378.291C76.3912 385.189 85.533 389.511 95.6869 389.511C105.841 389.511 114.985 385.189 121.387 378.291C145.616 385.663 165.409 403.193 175.843 425.914C186.277 403.193 206.069 385.665 230.3 378.291C236.704 385.189 245.846 389.511 256 389.511C266.154 389.511 275.298 385.189 281.7 378.291C305.929 385.663 325.722 403.193 336.157 425.914C346.59 403.193 366.383 385.665 390.613 378.291C397.017 385.189 406.159 389.511 416.313 389.511C426.467 389.511 435.611 385.189 442.013 378.291C478.172 389.292 504.485 422.898 504.485 462.654ZM463.405 275.288H401.284C390.216 275.288 381.245 284.259 381.245 295.327V315.366H451.382L463.405 275.288ZM130.755 315.366V295.327C130.755 284.259 121.784 275.288 110.716 275.288H48.5949L60.6184 315.366H130.755ZM291.068 315.366L301.088 275.288H210.912L220.931 315.366H291.068Z" fill="#01A100"/>
<path d="M40.5792 7.76517V208.157H82.6614L98.6927 238.215L165.824 208.157H215.922L256 238.215L296.078 208.157H346.176L413.307 238.215L429.339 208.157H471.421V7.76517H40.5792Z" fill="#01A100"/>
<path d="M281.049 141.01V183.108H230.951V141.01C213.112 131.888 200.892 113.341 200.892 91.9296C200.892 61.4941 225.565 36.8219 256 36.8219C286.435 36.8219 311.108 61.4941 311.108 91.9296C311.108 113.341 298.888 131.888 281.049 141.01ZM416.313 389.511C435.681 389.511 451.382 373.81 451.382 354.442V315.366H381.245V354.442C381.245 373.81 396.945 389.511 416.313 389.511ZM95.6869 389.511C76.3191 389.511 60.6184 373.81 60.6184 354.442V315.366H130.755V354.442C130.755 373.81 115.055 389.511 95.6869 389.511ZM256 389.511C236.632 389.511 220.932 373.81 220.932 354.442V315.366H291.069V354.442C291.069 373.81 275.368 389.511 256 389.511Z" fill="#EAF1E9"/>
<path d="M453.8 374.624C461.946 359.554 457.765 348.4 458.896 316.468L473.505 267.773H401.284C386.09 267.773 373.73 280.134 373.73 295.327V307.851C374.955 348.256 370.547 359.279 378.813 374.598C361.354 382.032 346.503 394.525 336.15 410.398C325.761 394.533 310.919 382.088 293.486 374.625C301.632 359.553 297.448 348.434 298.582 316.291L310.712 267.772H201.287L213.417 316.292C214.563 348.755 210.411 359.616 218.513 374.626C201.08 382.09 186.239 394.534 175.849 410.399C165.497 394.526 150.646 382.035 133.186 374.599C136.53 368.407 138.277 361.48 138.27 354.443V295.328C138.27 280.135 125.91 267.774 110.716 267.774H38.4952L53.1037 316.468C54.25 348.808 50.0978 359.635 58.1997 374.624C23.6131 389.437 0 423.381 0 462.654V511.75H15.0294V462.654C15.0294 428.334 36.1877 398.398 68.106 386.848C75.7956 393.419 85.5789 397.029 95.6941 397.028C105.809 397.026 115.591 393.413 123.279 386.839C142.432 393.802 158.273 407.838 167.557 426.055C156.48 452.757 161.678 470.893 160.313 511.751H175.342V462.655C175.342 428.335 196.501 398.399 228.419 386.849C236.107 393.419 245.888 397.029 256 397.029C266.113 397.029 275.894 393.419 283.582 386.849C315.499 398.398 336.658 428.334 336.658 462.654V511.75H351.687C350.324 470.982 355.527 452.771 344.443 426.054C353.727 407.839 369.568 393.803 388.721 386.838C404.652 400.417 427.965 400.424 443.894 386.848C475.812 398.398 496.971 428.334 496.971 462.654V511.75H512V462.654C512 423.49 488.486 389.479 453.8 374.624ZM123.241 354.442C123.241 369.635 110.881 381.996 95.6869 381.996C80.4932 381.996 68.1331 369.635 68.1331 354.442V322.881H123.241V354.442ZM123.241 307.851H66.2093L58.6946 282.802H110.716C117.623 282.802 123.241 288.42 123.241 295.327V307.851ZM283.554 354.442C283.554 369.635 271.194 381.996 256 381.996C240.806 381.996 228.446 369.635 228.446 354.442V322.881H283.554V354.442ZM285.201 307.851H226.799L220.537 282.802H291.463L285.201 307.851ZM443.867 354.442C443.867 369.635 431.507 381.996 416.313 381.996C401.119 381.996 388.759 369.635 388.759 354.442V322.881H443.867V354.442ZM445.791 307.851H388.759V295.327C388.759 288.42 394.377 282.802 401.284 282.802H453.305L445.791 307.851ZM453.887 453.636H468.916V511.75H453.887V453.636ZM365.714 453.636H380.744V511.75H365.714V453.636ZM43.0841 453.636H58.1135V511.75H43.0841V453.636ZM131.256 453.636H146.286V511.75H131.256V453.636ZM203.397 453.636H218.427V511.75H203.397V453.636ZM293.573 453.636H308.603V511.75H293.573V453.636ZM95.3623 247.94L167.429 215.671H213.417L256 247.609L298.583 215.671H344.57L416.637 247.94L433.847 215.671H478.935V0.250488H33.0646V215.671H78.1526L95.3623 247.94ZM48.0939 15.2798H463.906V200.642H424.83L409.977 228.49L347.781 200.642H293.573L256 228.822L218.427 200.642H164.218L102.022 228.49L87.1703 200.642H48.0939V15.2798ZM223.436 145.414V190.622H288.564V145.414C342.537 112.613 318.971 29.3072 256 29.3072C193.067 29.3072 169.418 112.586 223.436 145.414ZM273.534 175.593H238.466V149.542H273.534V175.593ZM256 44.3366C305.561 44.3366 322.189 111.532 277.627 134.319L277.249 134.513H263.515V105.456H281.049V90.4266H230.951V105.456H248.485V134.513H234.751L234.373 134.319C189.892 111.573 206.318 44.3366 256 44.3366ZM171.836 99.4442H135.765V84.4149H171.836V99.4442ZM174.538 118.678L185.165 129.306L161.118 153.353L150.491 142.725L174.538 118.678ZM174.538 65.1813L150.491 41.1343L161.118 30.5066L185.165 54.5535L174.538 65.1813ZM340.164 84.4149H376.235V99.4442H340.164V84.4149ZM350.882 153.354L326.835 129.307L337.462 118.679L361.509 142.726L350.882 153.354ZM337.462 65.1813L326.835 54.5535L350.882 30.5066L361.509 41.1343L337.462 65.1813Z" fill="#028704"/>
</g>
<defs>
<clipPath id="clip0_12_6">
<rect width="512" height="512" fill="white"/>
</clipPath>
</defs>
</svg>
