<svg width="512" height="512" viewBox="0 0 512 512" fill="none" xmlns="http://www.w3.org/2000/svg">
<g clip-path="url(#clip0_12_18)">
<path d="M245.98 302.09C218.312 302.09 195.883 279.66 195.883 251.992C195.883 224.324 218.312 201.894 245.98 201.894C249.412 201.894 252.764 202.241 256 202.898V135.765H180.851C181.52 132.467 181.856 129.111 181.855 125.746C181.855 98.0776 159.425 75.6478 131.757 75.6478C104.089 75.6478 81.6595 98.0776 81.6595 125.746C81.6595 129.177 82.0062 132.529 82.6635 135.765H7.51468V376.235H82.6635C81.9945 372.937 81.6582 369.58 81.6595 366.215C81.6595 338.547 104.089 316.117 131.757 316.117C159.425 316.117 181.855 338.547 181.855 366.215C181.855 369.647 181.509 372.999 180.851 376.235H256V301.086C252.702 301.755 249.345 302.091 245.98 302.09Z" fill="#01A100"/>
<path d="M504.485 135.765H429.337C430.005 139.063 430.342 142.42 430.34 145.785C430.34 173.453 407.911 195.883 380.243 195.883C352.575 195.883 330.145 173.453 330.145 145.785C330.145 142.353 330.491 139.001 331.149 135.765H256V202.898C252.702 202.229 249.345 201.893 245.98 201.894C218.312 201.894 195.883 224.324 195.883 251.992C195.883 279.66 218.312 302.09 245.98 302.09C249.412 302.09 252.764 301.743 256 301.086V376.235H331.149C330.48 379.533 330.144 382.889 330.145 386.254C330.145 413.922 352.575 436.352 380.243 436.352C407.911 436.352 430.34 413.922 430.34 386.254C430.34 382.823 429.994 379.471 429.337 376.235H504.485V135.765Z" fill="#01A100"/>
<path d="M512 128.25H420.143L421.972 137.26C427.363 163.8 406.98 188.368 380.243 188.368C353.485 188.368 333.128 163.777 338.513 137.26L340.343 128.25H189.318C190.738 95.5296 164.511 68.1331 131.759 68.1331C99.0194 68.1331 72.7812 95.5145 74.2009 128.25H0V383.75H91.8574C90.5368 376.527 89.1742 372.738 89.1742 366.215C89.1742 342.734 108.276 323.632 131.757 323.632C155.238 323.632 174.341 342.734 174.341 366.215C174.341 372.723 172.996 376.435 171.657 383.75H322.682C321.262 416.47 347.489 443.867 380.241 443.867C412.981 443.867 439.219 416.485 437.799 383.75H512V128.25ZM189.316 368.72C190.736 335.999 164.509 308.603 131.757 308.603C99.0174 308.603 72.7792 335.984 74.1989 368.72H15.0294V143.28H91.8574L90.0278 134.27C84.6373 107.73 105.02 83.1624 131.757 83.1624C158.515 83.1624 178.872 107.753 173.487 134.27L171.657 143.28H248.485V194.434C215.764 193.014 188.368 219.24 188.368 251.992C188.368 283.76 214.212 309.605 245.98 309.605C246.816 309.605 247.651 309.587 248.485 309.551V368.72H189.316ZM496.971 368.72H420.143C421.465 375.942 422.826 379.732 422.826 386.254C422.826 409.735 403.724 428.838 380.243 428.838C356.762 428.838 337.659 409.735 337.659 386.254C337.659 379.747 339.004 376.034 340.343 368.72H263.515V291.892C256.293 293.215 252.503 294.575 245.98 294.575C222.5 294.575 203.397 275.473 203.397 251.992C203.397 225.235 227.988 204.877 254.505 210.263L263.515 212.092V143.28H322.684C321.264 176.001 347.491 203.397 380.243 203.397C412.983 203.397 439.221 176.016 437.801 143.28H496.971V368.72ZM412.806 306.098C412.806 319.081 402.244 329.644 389.26 329.644H387.757V344.172H372.728V329.644H355.194V314.614H389.26C400.532 314.614 400.517 297.581 389.26 297.581H371.225C358.242 297.581 347.679 287.019 347.679 274.035C347.679 261.052 358.242 250.489 371.225 250.489H372.728V235.961H387.757V250.489H405.292V265.519H371.225C368.967 265.521 366.802 266.419 365.206 268.016C363.609 269.613 362.711 271.777 362.708 274.035C362.711 276.293 363.609 278.458 365.206 280.054C366.802 281.651 368.967 282.549 371.225 282.552H389.26C402.244 282.552 412.806 293.114 412.806 306.098ZM164.321 237.965C164.321 250.948 153.758 261.511 140.775 261.511H139.272V276.039H124.243V261.511H106.708V246.481H140.775C152.047 246.481 152.032 229.448 140.775 229.448H122.74C109.756 229.448 99.1937 218.885 99.1937 205.902C99.1937 192.919 109.756 182.356 122.74 182.356H124.243V167.828H139.272V182.356H156.806V197.386H122.74C111.468 197.386 111.483 214.419 122.74 214.419H140.775C153.758 214.419 164.321 224.981 164.321 237.965ZM263.515 94.6849H248.485V64.6262H263.515V94.6849ZM224.635 110.019L204.596 89.9797L215.223 79.352L235.262 99.3911L224.635 110.019ZM287.365 110.019L276.737 99.3911L296.777 79.352L307.404 89.9797L287.365 110.019ZM248.485 417.315H263.515V447.374H248.485V417.315ZM224.635 401.981L235.262 412.609L215.223 432.648L204.596 422.02L224.635 401.981ZM287.365 401.981L307.404 422.02L296.777 432.648L276.737 412.609L287.365 401.981Z" fill="#028704"/>
</g>
<defs>
<clipPath id="clip0_12_18">
<rect width="512" height="512" fill="white"/>
</clipPath>
</defs>
</svg>
