<svg width="512" height="512" viewBox="0 0 512 512" fill="none" xmlns="http://www.w3.org/2000/svg">
<g clip-path="url(#clip0_12_11)">
<path d="M171 324H341V504H171V324Z" fill="#01A100"/>
<path d="M31 374H171V504H31V374Z" fill="#01A100"/>
<path d="M341 404H481V504H341V404Z" fill="#01A100"/>
<path d="M206 264H306V324H206V264Z" fill="#01A100"/>
<path d="M336 8V108C336 147.053 308 179.55 271 186.575V264H241V186.575C204 179.551 176 147.053 176 108V8H336ZM240.55 397.2L206 402.22L231 426.59L225.098 460.99L256 444.754L286.902 461L281 426.6L306 402.23L271.45 397.21L256 365.894L240.55 397.2Z" fill="#EAF1E9"/>
<path d="M488.5 496.5V396.5H348.5V316.5H313.5V256.5H278.5V192.562C307.133 184.937 330.035 163.122 339.186 135.139C375.25 131.523 403.5 101 403.5 64V30.5H343.5V0.5H168.5V30.5H108.5V64C108.5 101 136.75 131.523 172.814 135.14C181.966 163.123 204.867 184.938 233.5 192.563V256.5H198.5V316.5H163.5V366.5H23.5V496.5H0V511.5H512V496.5H488.5ZM343.5 108V45.5H388.5V64C388.5 91.478 368.78 114.426 342.75 119.462C343.25 115.662 343.5 111.833 343.5 108ZM123.5 64V45.5H168.5V108C168.5 111.833 168.751 115.662 169.251 119.462C143.22 114.426 123.5 91.478 123.5 64ZM163.5 496.5H38.5V381.5H163.5V496.5ZM183.5 108V15.5H328.5V108C328.5 147.977 295.977 180.5 256 180.5C216.023 180.5 183.5 147.977 183.5 108ZM263.5 195.175V256.5H248.5V195.175C250.973 195.385 253.473 195.5 256 195.5C258.527 195.5 261.027 195.386 263.5 195.175ZM213.5 271.5H298.5V316.5H213.5V271.5ZM333.5 496.5H178.5V331.5H333.5V496.5ZM473.5 496.5H348.5V411.5H473.5V496.5ZM248.5 148V133.5H231V118.5H265C267.254 118.497 269.414 117.601 271.007 116.007C272.601 114.414 273.497 112.254 273.5 110C273.497 107.746 272.601 105.586 271.007 103.993C269.414 102.399 267.254 101.503 265 101.5H247C234.042 101.5 223.5 90.958 223.5 78C223.5 65.042 234.042 54.5 247 54.5H248.5V40H263.5V54.5H281V69.5H247C244.746 69.5026 242.586 70.399 240.993 71.9925C239.399 73.586 238.503 75.7465 238.5 78C238.503 80.2535 239.399 82.414 240.993 84.0075C242.586 85.601 244.746 86.4974 247 86.5H265C277.958 86.5 288.5 97.042 288.5 110C288.5 122.958 277.958 133.5 265 133.5H263.5V148H248.5ZM215.138 474.7L256 453.228L296.862 474.71L289.058 429.21L322.118 396.986L276.432 390.346L256 348.948L235.568 390.345L189.882 396.985L222.942 429.209L215.138 474.7ZM222.118 407.448L245.53 404.048L256 382.84L266.47 404.056L289.882 407.456L272.942 423.971L276.942 447.288L256.002 436.288L235.062 447.288L239.062 423.971L222.118 407.448ZM123.5 199.5H108.5V184.5H123.5V199.5ZM123.5 249.5H108.5V234.5H123.5V249.5ZM148.5 209.5V224.5H133.5V209.5H148.5ZM98.5 224.5H83.5V209.5H98.5V224.5ZM403.5 236.5H388.5V221.5H403.5V236.5ZM388.5 271.5H403.5V286.5H388.5V271.5ZM428.5 261.5H413.5V246.5H428.5V261.5ZM363.5 261.5V246.5H378.5V261.5H363.5Z" fill="#028704"/>
</g>
<defs>
<clipPath id="clip0_12_11">
<rect width="512" height="512" fill="white"/>
</clipPath>
</defs>
</svg>
